{"title":"WPC 56 S03","uid":11753177,"size":2497071787,"categoryP":"video","categoryS":"tv_shows","magnet":"?xt=urn:btih:8eb3eb8b5e2d7b912fdd538c276452cbc096dfef&amp;dn=WPC+56+S03&amp;tr=udp%3A%2F%2Ftracker.openbittorrent.com%3A80&amp;tr=udp%3A%2F%2Fopen.demonii.com%3A1337&amp;tr=udp%3A%2F%2Ftracker.coppersurfer.tk%3A6969&amp;tr=udp%3A%2F%2Fexodus.desync.com%3A6969","seeders":8,"leechers":2,"uploader":"RedBaron58","files":5,"time":1426273727,"description":"WPC 56 S03 x264 mp4\n  &lt;a href=&quot;\nhttp://www.imdb.com/title/tt2678354/&quot; rel=&quot;nofollow&quot; target=&quot;_NEW&quot;&gt;\nhttp://www.imdb.com/title/tt2678354/&lt;/a&gt;\n\nTrailer: (Series 1)\n\n\nThank you for your kind comments and feedback on my other torrents, your feedback is welcome.\n\n\nAbout the Series:\nWPC Gina Dawson, having been cleared of all blame in a shooting, moves to the Metropolitan Police. \nAssistant Chief Constable Coulson reneges on his promise to Inspector Briggs that he will retire early \nafter sexually molesting Dawson.\nWPC Annie Taylor, whose father is a retired Brinford police sergeant, replaces Dawson. She lives with \nher parents and knows how to handle her fellow officers, including Sergeant Fenton.\n\nThe series revolves round the shooting of a retired Brigadier and events at a secure hospital and the \nrelationships of Inspector Briggs, his wife Charlotte, homosexual Carl Saunders and Coulson's desire \nto take control of the station and undermine those that know of his past misdemeanours.\n\nI hope you enjoy.\n\n\nTechnical: (All episodes are encoded to the same settings)\n\nGeneral\nComplete name                            : H:WPC 56 S03WPC 56 S03E01 - A Different Beat x264 RB58.mp4\nFormat                                   : MPEG-4\nFormat profile                           : Base Media\nCodec ID                                 : isom\nFile size                                : 477 MiB\nDuration                                 : 43mn 40s\nOverall bit rate                         : 1 527 Kbps\nWriting application                      : Lavf54.63.104\n\nVideo\nID                                       : 1\nFormat                                   : AVC\nFormat/Info                              : Advanced Video Codec\nFormat profile                           : &lt;a class=&quot;__cf_email__&quot; href=&quot;/cdn-cgi/l/email-protection&quot; data-cfemail=&quot;034b6a646b434f302d33&quot;&gt;[email&amp;#160;protected]&lt;/a&gt;&lt;script cf-hash='f9e31' type=&quot;text/javascript&quot;&gt;\n/* &lt;![CDATA[ */!function(){try{var t=&quot;currentScript&quot;in document?document.currentScript:function(){for(var t=document.getElementsByTagName(&quot;script&quot;),e=t.length;e--;)if(t[e].getAttribute(&quot;cf-hash&quot;))return t[e]}();if(t&amp;&amp;t.previousSibling){var e,r,n,i,c=t.previousSibling,a=c.getAttribute(&quot;data-cfemail&quot;);if(a){for(e=&quot;&quot;,r=parseInt(a.substr(0,2),16),n=2;a.length-n;n+=2)i=parseInt(a.substr(n,2),16)^r,e+=String.fromCharCode(i);e=document.createTextNode(e),c.parentNode.replaceChild(e,c)}}}catch(u){}}();/* ]]&gt; */&lt;/script&gt;\nFormat settings, CABAC                   : Yes\nFormat settings, ReFrames                : 4 frames\nCodec ID                                 : avc1\nCodec ID/Info                            : Advanced Video Coding\nDuration                                 : 43mn 40s\nBit rate                                 : 1 400 Kbps\nWidth                                    : 832 pixels\nHeight                                   : 468 pixels\nDisplay aspect ratio                     : 16:9\nFrame rate mode                          : Constant\nFrame rate                               : 25.000 fps\nColor space                              : YUV\nChroma subsampling                       : 4:2:0\nBit depth                                : 8 bits\nScan type                                : Progressive\nBits/(Pixel*Frame)                       : 0.144\nStream size                              : 437 MiB (92%)\nWriting library                          : x264 core 123 r2189 35cf912\nEncoding settings                        : cabac=1 / ref=3 / deblock=1:0:0\n\nAudio\nID                                       : 2\nFormat                                   : AAC\nFormat/Info                              : Advanced Audio Codec\nFormat profile                           : LC\nCodec ID                                 : 40\nDuration                                 : 43mn 40s\nBit rate mode                            : Constant\nBit rate                                 : 119 Kbps\nChannel(s)                               : 2 channels\nChannel positions                        : Front: L R\nSampling rate                            : 48.0 KHz\nCompression mode                         : Lossy\nStream size                              : 37.3 MiB (8%)","torrent":{"xt":"urn:btih:8eb3eb8b5e2d7b912fdd538c276452cbc096dfef","amp;dn":"WPC+56+S03","amp;tr":["udp%3A%2F%2Ftracker.openbittorrent.com%3A80","udp%3A%2F%2Fopen.demonii.com%3A1337","udp%3A%2F%2Ftracker.coppersurfer.tk%3A6969","udp%3A%2F%2Fexodus.desync.com%3A6969"],"infoHash":"8eb3eb8b5e2d7b912fdd538c276452cbc096dfef","infoHashBuffer":{"type":"Buffer","data":[142,179,235,139,94,45,123,145,47,221,83,140,39,100,82,203,192,150,223,239]},"announce":[],"urlList":[]}}